<svg width="40" height="26" viewBox="0 0 40 26" fill="none" xmlns="http://www.w3.org/2000/svg">
<g clip-path="url(#clip0_248:257)">
<path d="M0.375 3.25C0.375 1.45507 1.83007 0 3.625 0H36.125C37.9199 0 39.375 1.45507 39.375 3.25V22.75C39.375 24.5449 37.9199 26 36.125 26H3.625C1.83007 26 0.375 24.5449 0.375 22.75V3.25Z" fill="white"/>
<path d="M30.6085 20.4171C32.1064 20.4171 32.8114 19.8456 33.4272 18.1131L36.125 10.5463H34.563L32.7539 16.4005H32.7222L30.9131 10.5542H29.3068L31.9095 17.7563L31.7701 18.1944C31.6716 18.8214 31.1086 19.2688 30.475 19.2225C30.3541 19.2225 30.1195 19.2099 30.0244 19.1974V20.3867C30.218 20.4132 30.4135 20.4257 30.6085 20.425V20.4171ZM25.4031 16.6278C24.5838 16.6278 24.0638 16.2313 24.0638 15.6314C24.0638 15.0096 24.5653 14.6475 25.5241 14.59L27.2314 14.4823V15.0413C27.1938 15.9624 26.4161 16.6793 25.495 16.6416C25.4639 16.6403 25.4335 16.6377 25.4031 16.635V16.6278ZM24.9908 17.8019C25.9205 17.827 26.79 17.3427 27.2572 16.5386H27.2889V17.7279H28.7108V12.8021C28.7108 11.3735 27.5684 10.4531 25.8095 10.4531C24.1781 10.4531 22.9716 11.3861 22.9273 12.6686H24.3116C24.4768 12.0165 25.0966 11.5863 25.7652 11.659C26.7048 11.659 27.2314 12.0971 27.2314 12.9032V13.4489L25.3153 13.5632C23.5313 13.6709 22.5666 14.4011 22.5666 15.671C22.5653 16.9588 23.5617 17.8092 24.9902 17.8092L24.9908 17.8019ZM16.7507 9.12438H18.5215C19.8549 9.12438 20.6167 9.83534 20.6167 11.0861C20.6167 12.3369 19.8549 13.0538 18.5156 13.0538H16.7507V9.12438ZM15.2145 7.82933V17.7259H16.7507V14.3522H18.8777C20.6101 14.4453 22.0895 13.1166 22.1827 11.3841C22.188 11.2857 22.1886 11.1879 22.1847 11.0894C22.2666 9.37613 20.9445 7.92117 19.2312 7.83858C19.1301 7.83396 19.0296 7.83462 18.9285 7.83924L15.2145 7.82933ZM10.1156 9.6761C9.23281 9.62523 8.47758 10.1776 8.05867 10.1776C7.63976 10.1776 6.99223 9.70187 6.29383 9.71509C5.36879 9.73887 4.52568 10.2509 4.07836 11.061C3.12623 12.699 3.83058 15.1239 4.75099 16.4566C5.20162 17.1174 5.74211 17.8409 6.4524 17.8151C7.12504 17.79 7.39198 17.377 8.20469 17.377C9.0174 17.377 9.25857 17.8151 9.96953 17.8019C10.7056 17.7894 11.1694 17.1412 11.6214 16.4804C11.9399 16.0126 12.1876 15.5005 12.3575 14.9607C11.4899 14.5814 10.9276 13.7271 10.923 12.7803C10.9362 11.9451 11.3736 11.1747 12.0846 10.7366C11.6313 10.093 10.9038 9.69791 10.1169 9.67016L10.1156 9.6761ZM9.5645 8.80194C9.17796 9.28891 8.5866 9.5684 7.96484 9.55717C7.9252 8.95061 8.13135 8.35396 8.53638 7.90069C8.93944 7.43289 9.50767 7.13952 10.1222 7.08203C10.1658 7.70577 9.96557 8.32158 9.56318 8.79996" fill="black"/>
</g>
<defs>
<clipPath id="clip0_248:257">
<rect width="39" height="26" fill="white" transform="translate(0.375)"/>
</clipPath>
</defs>
</svg>
