<svg width="40" height="26" viewBox="0 0 40 26" fill="none" xmlns="http://www.w3.org/2000/svg">
<g clip-path="url(#clip0_248:260)">
<path d="M0.25 3.25C0.25 1.45507 1.70507 0 3.5 0H36C37.7949 0 39.25 1.45507 39.25 3.25V22.75C39.25 24.5449 37.7949 26 36 26H3.5C1.70507 26 0.25 24.5449 0.25 22.75V3.25Z" fill="white"/>
<path d="M18.8703 13.874V17.6308H17.6702V8.35316H20.8531C21.233 8.34528 21.6108 8.4122 21.9645 8.55005C22.3183 8.68791 22.641 8.89397 22.9142 9.15634C23.1901 9.40279 23.4097 9.70503 23.5582 10.0428C23.7067 10.3805 23.7806 10.7459 23.7751 11.1143C23.783 11.4848 23.7102 11.8525 23.5616 12.1924C23.413 12.5323 23.1921 12.8362 22.9142 13.0834C22.3576 13.6105 21.6706 13.8738 20.8531 13.8733H18.8703V13.874ZM18.8703 9.49538V12.734H20.8829C21.1036 12.7405 21.3231 12.7012 21.5276 12.6186C21.7321 12.536 21.9169 12.4119 22.0704 12.2543C22.223 12.107 22.3443 11.9307 22.4272 11.736C22.51 11.5413 22.5527 11.332 22.5527 11.1206C22.5527 10.9092 22.51 10.7 22.4272 10.5053C22.3443 10.3105 22.223 10.1343 22.0704 9.98691C21.9189 9.82599 21.7347 9.69888 21.5299 9.61401C21.3252 9.52914 21.1047 9.48845 20.8829 9.49464H18.8703V9.49538Z" fill="#5F6368"/>
<path d="M26.5407 11.0752C27.4277 11.0752 28.1279 11.3106 28.6413 11.7814C29.1546 12.2522 29.4111 12.8977 29.4106 13.7179V17.6302H28.2626V16.7493H28.2104C27.7135 17.4747 27.0526 17.8375 26.2276 17.8375C25.5235 17.8375 24.9343 17.6302 24.4602 17.2156C24.2327 17.0254 24.0508 16.7871 23.9278 16.5182C23.8048 16.2492 23.7437 15.9564 23.7491 15.6611C23.7491 15.0042 23.9991 14.4819 24.499 14.094C24.9989 13.7061 25.6663 13.5116 26.5012 13.5106C27.2138 13.5106 27.8007 13.6402 28.2619 13.8993V13.6269C28.2632 13.4255 28.2195 13.2264 28.1337 13.044C28.048 12.8615 27.9224 12.7003 27.7662 12.572C27.4488 12.2876 27.0352 12.1325 26.6078 12.1375C25.9374 12.1375 25.4069 12.4183 25.0163 12.9799L23.9593 12.3188C24.5407 11.4897 25.4012 11.0752 26.5407 11.0752ZM24.988 15.687C24.9872 15.8387 25.0229 15.9884 25.0921 16.1236C25.1614 16.2588 25.2621 16.3756 25.386 16.4643C25.6515 16.6716 25.9809 16.7815 26.3186 16.7752C26.825 16.7744 27.3104 16.5742 27.6685 16.2185C28.0661 15.8469 28.2649 15.4109 28.2649 14.9105C27.8907 14.6144 27.3689 14.4663 26.6995 14.4663C26.212 14.4663 25.8055 14.583 25.48 14.8165C25.1512 15.0533 24.988 15.3413 24.988 15.687Z" fill="#5F6368"/>
<path d="M35.9999 11.2832L31.9925 20.4291H30.7537L32.2408 17.229L29.6057 11.2832H30.9102L32.8147 15.8432H32.8408L34.6932 11.2832H35.9999Z" fill="#5F6368"/>
<path d="M14.0205 13.0642C14.021 12.701 13.99 12.3384 13.9281 11.9805H8.8667V14.0332H11.7656C11.7063 14.3611 11.5808 14.6736 11.3965 14.952C11.2123 15.2303 10.9732 15.4688 10.6937 15.6529V16.9854H12.4238C13.4369 16.0578 14.0205 14.6861 14.0205 13.0642Z" fill="#4285F4"/>
<path d="M8.86681 18.2727C10.3152 18.2727 11.5347 17.8004 12.4239 16.9861L10.6938 15.6536C10.2123 15.9779 9.5921 16.1629 8.86681 16.1629C7.46691 16.1629 6.27872 15.2258 5.85383 13.9629H4.07153V15.3361C4.51824 16.2188 5.20321 16.9609 6.04998 17.4794C6.89675 17.998 7.87198 18.2726 8.86681 18.2727Z" fill="#34A853"/>
<path d="M5.85379 13.9622C5.62916 13.3004 5.62916 12.5838 5.85379 11.922V10.5488H4.07149C3.69571 11.2914 3.5 12.111 3.5 12.9421C3.5 13.7732 3.69571 14.5928 4.07149 15.3353L5.85379 13.9622Z" fill="#FBBC04"/>
<path d="M8.86681 9.72239C9.63219 9.70998 10.3718 9.99716 10.9257 10.5219L12.4575 9.00064C11.4861 8.09462 10.1993 7.5972 8.86681 7.61265C7.87198 7.6127 6.89675 7.88733 6.04998 8.40589C5.20321 8.92445 4.51824 9.66652 4.07153 10.5493L5.85383 11.9224C6.27872 10.6596 7.46691 9.72239 8.86681 9.72239Z" fill="#EA4335"/>
</g>
<defs>
<clipPath id="clip0_248:260">
<rect width="39" height="26" fill="white" transform="translate(0.25)"/>
</clipPath>
</defs>
</svg>
