<svg width="40" height="26" viewBox="0 0 40 26" fill="none" xmlns="http://www.w3.org/2000/svg">
<g clip-path="url(#clip0_248:271)">
<path d="M0.125 3.25C0.125 1.45507 1.58007 0 3.375 0H35.875C37.6699 0 39.125 1.45507 39.125 3.25V22.75C39.125 24.5449 37.6699 26 35.875 26H3.375C1.58007 26 0.125 24.5449 0.125 22.75V3.25Z" fill="white"/>
<path d="M23.6941 5.30317L15.3018 5.33203L15.5561 20.6963L23.9484 20.6674L23.6941 5.30317Z" fill="#FF5F00"/>
<path d="M15.8541 13.0454C15.8021 9.92043 17.202 7.14378 19.3947 5.34271C17.7396 4.04397 15.6647 3.26299 13.4155 3.2707C8.08692 3.28895 3.84858 7.67866 3.93844 13.0862C4.02831 18.4937 8.41206 22.8539 13.7406 22.8357C15.9899 22.828 18.0386 22.0329 19.6503 20.723C17.3984 18.9643 15.906 16.1704 15.8541 13.0454Z" fill="#EB001B"/>
<path d="M35.3118 12.9137C35.4016 18.3212 31.1633 22.7109 25.8347 22.7292C23.5855 22.7369 21.5106 21.9559 19.8555 20.6572C22.075 18.856 23.4481 16.0795 23.3962 12.9545C23.3442 9.82954 21.8522 7.06279 19.6 5.27694C21.2117 3.96701 23.2604 3.17191 25.5096 3.16421C30.8382 3.14596 35.2224 7.53332 35.3118 12.9137Z" fill="#F79E1B"/>
</g>
<defs>
<clipPath id="clip0_248:271">
<rect width="39" height="26" fill="white" transform="translate(0.125)"/>
</clipPath>
</defs>
</svg>
