<svg width="39" height="26" viewBox="0 0 39 26" fill="none" xmlns="http://www.w3.org/2000/svg">
<path d="M0 3.25C0 1.45507 1.45507 0 3.25 0H35.75C37.5449 0 39 1.45507 39 3.25V22.75C39 24.5449 37.5449 26 35.75 26H3.25C1.45507 26 0 24.5449 0 22.75V3.25Z" fill="white"/>
<path d="M33.5643 8.15332H31.5212C30.9035 8.15332 30.4284 8.34338 30.1433 8.96107L26.2471 17.8463H29.0029C29.0029 17.8463 29.4781 16.6584 29.5731 16.3734C29.8582 16.3734 32.5665 16.3734 32.9466 16.3734C33.0417 16.706 33.2792 17.7988 33.2792 17.7988H35.75L33.5643 8.15332ZM30.3333 14.3777C30.5709 13.8076 31.3786 11.6694 31.3786 11.6694C31.3786 11.7169 31.6162 11.0992 31.7113 10.7666L31.9013 11.6219C31.9013 11.6219 32.424 13.9501 32.519 14.4253H30.3333V14.3777Z" fill="#3362AB"/>
<path d="M26.4371 14.6628C26.4371 16.6584 24.6316 17.9888 21.8282 17.9888C20.6404 17.9888 19.5 17.7512 18.8823 17.4662L19.2624 15.2805L19.595 15.423C20.4503 15.8031 21.0205 15.9457 22.0658 15.9457C22.826 15.9457 23.6338 15.6606 23.6338 14.9954C23.6338 14.5678 23.3012 14.2827 22.2559 13.8075C21.2581 13.3324 19.9276 12.5721 19.9276 11.1942C19.9276 9.29364 21.7807 8.01074 24.394 8.01074C25.3918 8.01074 26.2471 8.2008 26.7697 8.43837L26.3896 10.529L26.1996 10.339C25.7244 10.1489 25.1067 9.95884 24.204 9.95884C23.2062 10.0064 22.731 10.434 22.731 10.8141C22.731 11.2417 23.3012 11.5743 24.204 12.002C25.7244 12.7147 26.4371 13.5224 26.4371 14.6628Z" fill="#3362AB"/>
<path d="M3.25 8.24865L3.29751 8.05859H7.38377C7.95395 8.05859 8.38158 8.24865 8.52412 8.86634L9.4269 13.1427C8.52412 10.862 6.43348 9.00889 3.25 8.24865Z" fill="#F9B50B"/>
<path d="M15.1761 8.15298L11.0424 17.7985H8.23901L5.86328 9.72097C7.57381 10.8138 8.99925 12.5243 9.52191 13.7122L9.80699 14.71L12.3728 8.10547H15.1761V8.15298Z" fill="#3362AB"/>
<path d="M16.269 8.10547H18.8823L17.2193 17.7985H14.606L16.269 8.10547Z" fill="#3362AB"/>
</svg>
