<svg width="18" height="15" viewBox="0 0 18 15" fill="none" xmlns="http://www.w3.org/2000/svg">
<path d="M16.7852 0.876336C16.577 0.62166 16.2651 0.481445 15.9069 0.481445C15.7122 0.481445 15.5059 0.522417 15.2938 0.60345L0.862647 6.11228C0.0967984 6.40455 -0.00634664 6.84314 0.000286896 7.07857C0.00692043 7.31399 0.134779 7.74608 0.915976 7.99465C0.920658 7.99608 0.925341 7.99751 0.930023 7.99881L3.92344 8.85545L5.54229 13.4846C5.76301 14.1157 6.25845 14.5077 6.83544 14.5077C7.19924 14.5077 7.55706 14.3553 7.87027 14.0671L9.72181 12.3622L12.4073 14.5247C12.4076 14.5249 12.408 14.525 12.4083 14.5253L12.4338 14.5459C12.4361 14.5477 12.4386 14.5496 12.4409 14.5514C12.7394 14.783 13.0652 14.9052 13.3835 14.9054H13.3836C14.0055 14.9054 14.5007 14.4451 14.6449 13.7328L17.0095 2.05724C17.1044 1.5886 17.0248 1.16925 16.7852 0.876336ZM4.92485 8.69273L10.7001 5.74236L7.10403 9.56342C7.04511 9.62598 7.00336 9.70259 6.9828 9.78596L6.2894 12.5947L4.92485 8.69273ZM7.19352 13.3322C7.16958 13.3542 7.14552 13.3738 7.12146 13.3919L7.76478 10.7863L8.93502 11.7287L7.19352 13.3322ZM16.0304 1.85888L13.6659 13.5346C13.6431 13.6463 13.5704 13.9063 13.3835 13.9063C13.2912 13.9063 13.1751 13.856 13.0564 13.7645L10.0133 11.3143C10.0129 11.3139 10.0124 11.3135 10.0119 11.3132L8.20116 9.85516L13.4015 4.32942C13.568 4.15253 13.583 3.88159 13.4372 3.68727C13.2913 3.49294 13.0269 3.43181 12.8106 3.54237L4.25746 7.91192L1.22333 7.04384L15.6501 1.5367C15.772 1.49013 15.8571 1.48038 15.9069 1.48038C15.9374 1.48038 15.9918 1.48402 16.012 1.50886C16.0385 1.54125 16.0723 1.65168 16.0304 1.85888Z" fill="#019EED"/>
</svg>
