<svg width="16" height="18" viewBox="0 0 16 18" fill="none" xmlns="http://www.w3.org/2000/svg">
<path fill-rule="evenodd" clip-rule="evenodd" d="M15.5232 10.0518C16.0319 5.77045 15.2789 3.06756 13.9207 1.84504L13.9214 1.84433C11.7292 -0.243398 4.32595 -0.552402 1.70333 1.9381C0.525569 3.15635 0.110723 4.94431 0.0652604 7.15777C0.0197978 9.37194 -0.034189 13.5197 3.83084 14.6449H3.83439L3.83084 16.3632C3.83084 16.3632 3.80456 17.0594 4.24924 17.1993C4.7282 17.3545 4.96022 17.077 6.30672 15.4661L6.56996 15.1514C9.21531 15.3808 11.2469 14.8552 11.4778 14.7784C11.5255 14.7625 11.593 14.7447 11.6768 14.7227L11.6769 14.7227L11.6769 14.7227C12.5317 14.4981 15.0782 13.829 15.5232 10.0518ZM6.83066 13.9424C6.83066 13.9424 5.15636 16.0301 4.63567 16.5721C4.46518 16.7483 4.27836 16.7319 4.2812 16.3824C4.2812 16.153 4.29399 13.5296 4.29399 13.5296C1.12975 12.6228 1.20117 9.29837 1.24179 7.40733L1.24587 7.21105C1.28138 5.36271 1.61951 3.84895 2.61685 2.82959C4.91768 0.672247 11.4082 1.15458 13.0619 2.70883C14.902 4.34015 14.4711 8.68167 14.3821 9.57823C14.3733 9.66665 14.3678 9.72157 14.3682 9.73707C13.994 12.8545 11.9711 13.3429 11.2431 13.5187C11.1625 13.5382 11.0979 13.5538 11.053 13.5687C10.8605 13.6326 9.07395 14.0922 6.83066 13.9424ZM7.75699 3.2352C7.48351 3.2352 7.48351 3.66141 7.75699 3.66496C9.87882 3.6813 11.6263 5.16025 11.6455 7.87309C11.6455 8.15936 12.0646 8.15581 12.061 7.86954H12.0603C12.0376 4.94644 10.1296 3.25154 7.75699 3.2352ZM10.9636 7.4334C10.96 7.71967 10.5416 7.70617 10.548 7.42345C10.5807 6.01198 9.72757 4.90667 8.10797 4.78378C7.83519 4.76389 7.86361 4.33413 8.13709 4.35402C10.0046 4.49396 10.9984 5.82161 10.9636 7.4334ZM10.1004 9.25686C9.74949 9.0537 9.39218 9.18014 9.24443 9.37975L8.93542 9.77968C8.77844 9.98284 8.48506 9.95585 8.48506 9.95585C6.34406 9.3897 5.77151 7.14925 5.77151 7.14925C5.77151 7.14925 5.74523 6.84593 5.94129 6.68325L6.32772 6.3636C6.52093 6.21016 6.64312 5.84078 6.44635 5.47779C6.04999 4.76167 5.75177 4.39933 5.552 4.1566C5.48682 4.07742 5.43213 4.01096 5.38792 3.94911C5.19897 3.71256 4.91483 3.65928 4.61932 3.81911H4.61293C3.99847 4.17855 3.32577 4.85125 3.541 5.54385C3.60468 5.67047 3.67762 5.84513 3.76589 6.05654C4.18667 7.06428 4.95607 8.9069 6.73404 10.3608C7.74487 11.1926 9.34459 12.045 10.0237 12.2418L10.0301 12.2517C10.6992 12.4748 11.3499 11.7758 11.6973 11.1428V11.1379C11.8514 10.8317 11.8003 10.5419 11.5751 10.3522C11.1759 9.96295 10.5735 9.53319 10.1004 9.25686ZM9.47889 7.06828C9.44338 6.3359 9.11235 5.97931 8.42971 5.93953C8.15338 5.92319 8.17895 5.49342 8.45244 5.50976C9.35032 5.55949 9.84898 6.09225 9.89445 7.04839C9.90723 7.33466 9.49168 7.35455 9.47889 7.06828Z" fill="#8E24AA"/>
</svg>
